  <svg width="318" height="161.12898027108554" viewBox="0 0 310 157.07542101898275" class="css-1j8o68f"><defs id="SvgjsDefs1371"></defs><g id="SvgjsG1372" featurekey="symbolFeature-0" transform="matrix(0.820784070506908,0,0,0.820784070506908,114.47865059363266,-5.609238428644449)" fill="#1b5a7a"><path xmlns="http://www.w3.org/2000/svg" d="M50,93.166C26.198,93.166,6.834,73.802,6.834,50S26.198,6.834,50,6.834S93.166,26.198,93.166,50S73.802,93.166,50,93.166z   M50,8.834C27.301,8.834,8.834,27.301,8.834,50S27.301,91.166,50,91.166S91.166,72.699,91.166,50S72.699,8.834,50,8.834z"></path><path xmlns="http://www.w3.org/2000/svg" d="M44.714,46.55l-0.107-0.742c18.198-2.623,28.245-13.025,31.72-17.375l0.586,0.468C73.382,33.32,63.177,43.889,44.714,46.55z  "></path><circle xmlns="http://www.w3.org/2000/svg" cx="44.793" cy="46.114" r="2.82"></circle><circle xmlns="http://www.w3.org/2000/svg" cx="76.514" cy="28.767" r="2.82"></circle><path xmlns="http://www.w3.org/2000/svg" d="M33.874,80.997c-3.484-4.387-9.012-13.539-6.895-25.552l0.738,0.131c-2.066,11.723,3.338,20.666,6.743,24.954L33.874,80.997  z"></path><circle xmlns="http://www.w3.org/2000/svg" cx="27.345" cy="55.653" r="2.82"></circle><circle xmlns="http://www.w3.org/2000/svg" cx="34.08" cy="80.649" r="2.82"></circle><path xmlns="http://www.w3.org/2000/svg" d="M78.553,58.284l-0.75-0.021c0.262-9.375-3.322-18.348-10.093-25.265c-7.05-7.204-16.891-11.292-27.026-11.233l-0.005-0.75  c10.321-0.04,20.376,4.11,27.567,11.458C75.16,39.537,78.82,48.704,78.553,58.284z"></path><circle xmlns="http://www.w3.org/2000/svg" cx="78.128" cy="58.131" r="2.82"></circle><circle xmlns="http://www.w3.org/2000/svg" cx="40.819" cy="21.442" r="2.82"></circle><path xmlns="http://www.w3.org/2000/svg" d="M55.399,79.061c-22.622-1.116-37.959-15.928-44.77-29.418c-5.007-9.918-5.79-19.582-2.043-25.222  c2.418-3.64,6.575-5.361,12.009-4.983l-0.052,0.748c-5.164-0.361-9.073,1.249-11.333,4.65c-3.598,5.416-2.798,14.791,2.088,24.469  c6.715,13.302,21.837,27.906,44.138,29.006L55.399,79.061z"></path><circle xmlns="http://www.w3.org/2000/svg" cx="55.277" cy="78.637" r="2.82"></circle><path xmlns="http://www.w3.org/2000/svg" d="M23.574,83.267C13.12,81.553,6.04,74.011,5.536,64.052c-0.484-9.58,5.413-20.969,19.679-24.818l0.195,0.724  C11.548,43.698,5.816,54.734,6.286,64.014c0.386,7.634,5.162,16.505,17.41,18.513L23.574,83.267z"></path><circle xmlns="http://www.w3.org/2000/svg" cx="25.179" cy="39.64" r="2.82"></circle><path xmlns="http://www.w3.org/2000/svg" d="M72.426,94.555c-0.325,0-0.654-0.015-0.988-0.046c-6.336-0.589-12.075-6.442-15.354-15.658l0.707-0.252  c3.178,8.934,8.679,14.602,14.716,15.163c3.25,0.309,6.127-1.001,7.521-3.397c1.443-2.479,1.026-5.686-1.145-8.796l0.615-0.43  c2.345,3.36,2.773,6.86,1.178,9.603C78.278,93.144,75.556,94.555,72.426,94.555z"></path><path xmlns="http://www.w3.org/2000/svg" d="M63.068,18.924l-0.713-0.234c1.704-5.167,4.714-8.496,8.26-9.131c2.183-0.394,4.329,0.351,5.595,1.938  c1.251,1.568,1.453,3.679,0.556,5.79l-0.689-0.293c0.786-1.85,0.621-3.683-0.452-5.029c-1.094-1.371-2.963-2.01-4.877-1.667  C67.481,10.882,64.683,14.027,63.068,18.924z"></path><circle xmlns="http://www.w3.org/2000/svg" cx="62.771" cy="18.677" r="2.82"></circle></g><g id="SvgjsG1373" featurekey="nameFeature-0" transform="matrix(1.1436181979993032,0,0,1.1436181979993032,-2.351964748004623,79.603224366036)" fill="#111111"><path d="M18.287 27.102 c0 1.6704 -0.91644 2.4189 -1.8848 2.4189 c-0.8868 0 -1.618 -0.7268 -1.618 -1.618 c0 -1.3504 1.5144 -1.592 1.5144 -2.6264 c0 -1.582 -2.3268 -2.96 -5.0124 -2.96 c-2.8304 0 -5.8704 2.0288 -5.8704 8.6028 c0 5.4964 2.4388 8.4592 6.1436 8.4592 c3.5088 0 5.3432 -2.6288 6.0892 -4.528 c0.056408 -0.1616 0.16121 -0.24281 0.30762 -0.24281 c0.25078 0 0.34719 0.21922 0.29078 0.4124 c-0.6136 1.8 -2.6288 5.2372 -7.1324 5.2372 c-5.8236 0 -9.058 -3.8812 -9.058 -9.3376 c0 -6.4496 4.5132 -9.2648 8.8512 -9.2648 c4.2952 0 7.3792 2.3684 7.3792 5.4472 z M42.653000000000006 39.3764 c0.18602 0 0.31531 0.12976 0.31531 0.30777 c0 0.18641 -0.12961 0.31602 -0.31562 0.31602 l-5.12 0 l0 -5.3028 c-0.9752 3.2024 -3.3128 5.5756 -6.8704 5.5756 c-3.44 0 -5.4992 -2.0164 -5.4992 -5.5724 l0 -11.153 c0 -0.5144 -0.38602 -0.96404 -0.96404 -0.96404 l-1.036 0 c-0.18641 0 -0.31602 -0.12961 -0.31602 -0.30762 c0 -0.18641 0.12961 -0.31602 0.31602 -0.31602 l5.12 0 l0 12.011 c0 4.0236 1.8084 5.192 3.4884 5.192 c3.5684 0 5.7616 -3.8096 5.7616 -8.2676 l0 -7.3476 c0 -0.5144 -0.38602 -0.96404 -0.96404 -0.96404 l-1.036 0 c-0.18602 0 -0.31562 -0.12961 -0.31562 -0.30762 c0 -0.18641 0.12961 -0.31602 0.31562 -0.31602 l5.12 0 l0 16.452 c0 0.5144 0.38602 0.96404 0.96404 0.96404 l1.036 0 z M55.13300000000001 22.91 c0 4.3656 7.3792 6.4436 7.3792 11.489 c0 3.8096 -3.5464 5.8592 -8.1064 5.8592 c-4.1296 0 -7.3956 -2.0952 -7.3956 -5.4968 c0 -1.3016 0.7096 -1.9904 1.4396 -2.1484 l5.1332 -9.404 c0.2332 -0.9388 0.6848 -1.8316 1.168 -2.6036 c0.35879 -0.5656 0.8124 -1.0028 1.0208 -1.0028 c0.21801 0 0.33922 0.1848 0.27562 0.35442 c-0.5076 0.924 -0.9144 1.7888 -0.9144 2.9528 z M54.02000000000001 39.58836 c4.138 0 5.4948 -2.1268 5.4948 -4.4468 c0 -3.5588 -6.3848 -5.9404 -6.1848 -10.245 l-4.208 7.7476 c0.5744 0.10641 1.0856 0.5736 1.0856 1.3996 c0 1.1932 -1.4564 1.484 -1.4564 2.4936 c0 1.6068 2.3764 3.0508 5.2688 3.0508 z M79.59400000000001 36.094 c0.18602 0 0.29914 0.13797 0.29914 0.29957 c0 0.098008 -0.0816 0.4028 -0.25961 0.76404 c-0.524 1.1696 -1.8304 3.1008 -4.8992 3.1008 c-3.7352 0 -5.6248 -2.2868 -5.6248 -5.1476 l0 -12.527 l-2 0 c-0.18641 0 -0.31602 -0.12961 -0.31602 -0.31562 c0 -0.17801 0.12961 -0.30762 0.31602 -0.30762 l0.39719 0 c2.1848 0 4.0992 -1.476 4.0992 -5.116 c0 -0.18641 0.12961 -0.31602 0.31562 -0.31602 c0.17801 0 0.30762 0.12961 0.30762 0.31602 l0 5.116 l6.3132 0 c0.18602 0 0.31562 0.12961 0.31562 0.31602 c0 0.17801 -0.12961 0.30762 -0.31562 0.30762 l-6.3132 0 l0 12.527 c0 2.5736 1.2704 4.164 3.236 4.164 c1.8416 0 3.0692 -0.916 3.7508 -2.6624 c0.1284 -0.2952 0.1616 -0.5188 0.37801 -0.5188 z M92.29000000000002 40.25801 c-4.9268 0 -8.7656 -3.326 -8.7656 -9.33 c0 -5.7888 3.7312 -9.2728 8.7656 -9.2728 c4.8524 0 8.7572 3.1532 8.7572 9.2732 c0 6.004 -3.7808 9.3296 -8.7572 9.3296 z M92.26800000000001 39.62719 c3.1116 -0.031602 5.4456 -3.0332 5.4456 -8.6824 c0 -5.7504 -2.3684 -8.6512 -5.4236 -8.6512 c-3.0388 0 -5.432 2.9008 -5.432 8.6512 c0 5.4288 2.2564 8.6508 5.41 8.6824 z M137.43200000000002 39.3764 c0.18641 0 0.31461 0.12914 0.31461 0.30715 c0 0.18641 -0.12961 0.31602 -0.31602 0.31602 l-7.12 0 c-0.18602 0 -0.31562 -0.12961 -0.31562 -0.31602 c0 -0.17801 0.12961 -0.30762 0.31562 -0.30762 l1.036 0 c0.578 0 0.96404 -0.4496 0.96404 -0.96404 l0 -10.441 c0 -3.974 -1.7588 -5.1424 -3.4388 -5.1424 c-3.5684 0 -5.7616 3.8096 -5.7616 8.2676 l0 7.316 c0 0.5144 0.38641 0.96404 0.9644 0.96404 l1.036 0 c0.18641 0 0.31602 0.12961 0.31602 0.30762 c0 0.18641 -0.12961 0.31602 -0.31602 0.31602 l-7.12 0 c-0.18602 0 -0.31562 -0.12961 -0.31562 -0.31602 c0 -0.17801 0.12961 -0.30762 0.31602 -0.30762 l1.036 0 c0.578 0 0.96404 -0.4496 0.96404 -0.96404 l0 -10.441 c0 -3.974 -1.7584 -5.1424 -3.4384 -5.1424 c-3.5684 0 -5.7616 3.8096 -5.7616 8.2676 l0 7.316 c0 0.5144 0.38641 0.96404 0.9644 0.96404 l1.036 0 c0.18641 0 0.31602 0.12961 0.31602 0.30762 c0 0.18641 -0.12961 0.31602 -0.31602 0.31602 l-7.12 0 c-0.18641 0 -0.31602 -0.12961 -0.31602 -0.31602 c0 -0.17801 0.12961 -0.30762 0.31602 -0.30762 l1.036 0 c0.578 0 0.96404 -0.4496 0.96404 -0.96404 l0 -14.865 c0 -0.5144 -0.38602 -0.96404 -0.96404 -0.96404 l-1.036 0 c-0.18641 0 -0.31602 -0.12961 -0.31602 -0.30762 c0 -0.18641 0.12961 -0.31602 0.31602 -0.31602 l5.12 0 l0 5.3756 c0.9876 -3.2572 3.3444 -5.6172 6.8704 -5.6172 c3.618 0 5.3064 2.0236 5.4188 5.6712 c0.9836 -3.2872 3.3536 -5.6708 6.9012 -5.6708 c3.44 0 5.4496 2.0164 5.4496 5.5228 l0 11.171 c0 0.5144 0.38641 0.96404 0.9644 0.96404 l1.036 0 z M171.535 39.3764 c0.18641 0 0.31637 0.12961 0.31637 0.30762 c0 0.18641 -0.12961 0.31602 -0.31602 0.31602 l-5.12 0 l0 -5.3836 c-1.1092 3.3544 -3.5132 5.7048 -6.7616 5.7048 c-4.0884 0 -7.8176 -2.9176 -7.8176 -9.3548 c0 -6.084 3.7252 -9.3112 7.818 -9.3112 c3.306 0 5.6852 2.44 6.7612 5.7284 l0 -14.956 c0 -0.5144 -0.38641 -0.96404 -0.9644 -0.96404 l-1.036 0 c-0.18641 0 -0.31602 -0.12961 -0.31602 -0.30762 c0 -0.18641 0.12961 -0.31602 0.31602 -0.31602 l5.12 0 l0 27.572 c0 0.5144 0.38602 0.96404 0.96404 0.96404 l1.036 0 z M160.541 39.4012 c3.0704 0 5.8992 -3.8168 5.8992 -8.3932 c0 -4.6112 -2.862 -8.4332 -5.8992 -8.4332 c-3.1132 0 -5.3548 2.5188 -5.3548 8.4016 c0 5.906 2.2416 8.4248 5.3548 8.4248 z M192.588 30.5364 c0 0.31039 -0.14809 0.42248 -0.51488 0.42248 l-12.843 0 c0 4.5504 1.8552 8.378 6.2512 8.378 c3.5364 0 5.4576 -2.5888 6.1472 -4.4948 c0.081212 -0.21121 0.19442 -0.26762 0.31562 -0.26762 c0.22641 0 0.3148 0.16961 0.2832 0.36281 c-0.31719 1.2304 -2.2412 5.32 -7.19 5.32 c-4.894 0 -9.1656 -2.8884 -9.1656 -9.3296 c0 -5.8964 3.5808 -9.2728 8.5836 -9.2728 c4.7684 0 8.1324 3.1008 8.1324 8.8816 z M179.2384 30.3684 l10.096 -0.00035156 c-0.033203 -5.4964 -1.9792 -8.084 -4.8812 -8.084 c-2.914 0 -5.0704 2.8156 -5.2144 8.0844 z M205.872 22.91 c0 4.3656 7.3792 6.4436 7.3792 11.489 c0 3.8096 -3.5464 5.8592 -8.1064 5.8592 c-4.1296 0 -7.3956 -2.0952 -7.3956 -5.4968 c0 -1.3016 0.7096 -1.9904 1.4396 -2.1484 l5.1332 -9.404 c0.2332 -0.9388 0.6848 -1.8316 1.168 -2.6036 c0.35879 -0.5656 0.8124 -1.0028 1.0208 -1.0028 c0.21801 0 0.33922 0.1848 0.27562 0.35442 c-0.5076 0.924 -0.9144 1.7888 -0.9144 2.9528 z M204.75900000000001 39.58836 c4.138 0 5.4948 -2.1268 5.4948 -4.4468 c0 -3.5588 -6.3848 -5.9404 -6.1848 -10.245 l-4.208 7.7476 c0.5744 0.10641 1.0856 0.5736 1.0856 1.3996 c0 1.1932 -1.4564 1.484 -1.4564 2.4936 c0 1.6068 2.3764 3.0508 5.2688 3.0508 z M219.5616 15.788 c0 -1.0068 0.8288 -1.8356 1.8676 -1.8356 c0.9904 0 1.8196 0.8288 1.8196 1.8356 c0 0.9904 -0.8292 1.8192 -1.8196 1.8192 c-1.0388 0 -1.8676 -0.8288 -1.8676 -1.8192 z M224.9768 39.3764 c0.18641 0 0.31558 0.12969 0.31558 0.3077 c0 0.18641 -0.12961 0.31602 -0.31602 0.31602 l-7.12 0 c-0.18641 0 -0.31602 -0.12961 -0.31602 -0.31602 c0 -0.17801 0.12961 -0.30762 0.31602 -0.30762 l1.036 0 c0.578 0 0.96404 -0.4496 0.96404 -0.96404 l0 -14.865 c0 -0.5144 -0.38602 -0.96404 -0.96404 -0.96404 l-1.036 0 c-0.18641 0 -0.31602 -0.12961 -0.31602 -0.30762 c0 -0.18641 0.12961 -0.31602 0.31602 -0.31602 l5.12 0 l0 16.452 c0 0.5144 0.38641 0.96404 0.9644 0.96404 l1.036 0 z M243.949 21.96 l3.1191 -0.00039062 l0 19.816 c0 6.2412 -3.6884 9.4124 -9.6772 9.4124 c-4.894 0 -7.8664 -2.9612 -7.8664 -5.9004 c0 -1.5504 0.982 -2.258 1.876 -2.258 c0.774 0 1.4912 0.5392 1.4912 1.546 c0 1.342 -1.3916 1.3104 -1.3916 2.5836 c0 1.16 1.934 3.374 5.6816 3.374 c4.662 0 6.7668 -3.5876 6.7668 -7.5488 l0 -8.3684 c-1.1088 3.3544 -3.5128 5.7048 -6.7612 5.7048 c-4.0884 0 -7.8176 -2.9176 -7.8176 -9.3548 c0 -6.084 3.7252 -9.3112 7.818 -9.3112 c3.306 0 5.6852 2.44 6.7612 5.7284 l0 -5.4236 z M238.074 39.40084 c3.0704 0 5.8992 -3.8168 5.8992 -8.3932 c0 -4.6112 -2.862 -8.4332 -5.8992 -8.4332 c-3.1132 0 -5.3544 2.5188 -5.3544 8.4016 c0 5.906 2.2412 8.4248 5.3544 8.4248 z M272.81100000000004 39.3764 c0.18641 0 0.31508 0.12961 0.31508 0.30762 c0 0.18641 -0.12961 0.31602 -0.31602 0.31602 l-7.12 0 c-0.18602 0 -0.31562 -0.12961 -0.31562 -0.31602 c0 -0.17801 0.12961 -0.30762 0.31602 -0.30762 l1.036 0 c0.578 0 0.96404 -0.4496 0.96404 -0.96404 l0 -10.392 c0 -4.0236 -1.9984 -5.192 -3.6784 -5.192 c-3.5684 0 -6.0016 3.8096 -6.0016 8.2676 l0 7.316 c0 0.5144 0.38641 0.96404 0.9644 0.96404 l1.036 0 c0.18641 0 0.31602 0.12961 0.31602 0.30762 c0 0.18641 -0.12961 0.31602 -0.31602 0.31602 l-7.12 0 c-0.18641 0 -0.31602 -0.12961 -0.31602 -0.31602 c0 -0.17801 0.12961 -0.30762 0.31602 -0.30762 l1.036 0 c0.578 0 0.96404 -0.4496 0.96404 -0.96404 l0 -14.865 c0 -0.5144 -0.38602 -0.96404 -0.96404 -0.96404 l-1.036 0 c-0.18641 0 -0.31602 -0.12961 -0.31602 -0.30762 c0 -0.18641 0.12961 -0.31602 0.31602 -0.31602 l5.12 0 l0 5.5 c1.0316 -3.3048 3.5408 -5.7412 7.11 -5.7412 c3.44 0 5.6896 2.0164 5.6896 5.5724 l0 11.121 c0 0.5144 0.38641 0.96404 0.9644 0.96404 l1.036 0 z"></path></g><g id="SvgjsG1374" featurekey="sloganFeature-0" transform="matrix(0.6302375874582855,0,0,0.6302375874582855,74.74790490491255,144.34462247357507)" fill="#1b5a7a"><path d="M5.1 17.8 l3 -9.6 l1.9 0 l3 9.6 l0.1 0 l3.1 -11.8 l1.5 0 l0 0.6 l-3.6 13.4 l-1.9 0 l-3.1 -9.8 l-0.1 0 l-3.1 9.8 l-1.9 0 l-3.6 -13.4 l0 -0.6 l1.5 0 l3.1 11.8 l0.1 0 z M25.9825 20 l0 -14 l9.1 0 l0 0.9 l-0.4 0.4 l-7.2 0 l0 4.9 l5.7 0 l0 1.3 l-5.7 0 l0 5.2 l7.6 0 l0 1.3 l-9.1 0 z M50.065000000000005 13.4 l-5 0 l0 5.3 l5 0 c1.1 0 2 -0.9 2 -2 l0 -1.3 c0 -1.1 -0.9 -2 -2 -2 z M51.165000000000006 12.5 l0 0.1 s2.4 0.4 2.4 2.8 l0 1.3 c0 1.9 -1.4 3.3 -3.5 3.3 l-6.5 0 l0 -14 l5.8 0 c2.1 0 3.5 1.4 3.5 3.3 l0 0.8 c0 2 -1.7 2.4 -1.7 2.4 z M49.365 7.300000000000001 l-4.3 0 l0 4.8 l4.3 0 c1.1 0 2 -0.9 2 -2 l0 -0.8 c0 -1.1 -0.9 -2 -2 -2 z M82.03000000000002 18.7 l0 1.3 l-5.8 0 c-2.1 0 -3.5 -1.4 -3.5 -3.3 l0 -7.4 c0 -1.9 1.4 -3.3 3.5 -3.3 l5.8 0 l0 0.9 l-0.4 0.4 l-5.4 0 c-1.1 0 -2 0.9 -2 2 l0 7.4 c0 1.1 0.9 2 2 2 l5.8 0 z M90.2125 16.9 l0 -7.8 c0 -1.9 1.4 -3.3 3.5 -3.3 l3.5 0 c2.1 0 3.5 1.4 3.5 3.3 l0 7.8 c0 1.9 -1.4 3.3 -3.5 3.3 l-3.5 0 c-2.1 0 -3.5 -1.4 -3.5 -3.3 z M99.2125 16.9 l0 -7.8 c0 -1.1 -0.9 -2 -2 -2 l-3.5 0 c-1.1 0 -2 0.9 -2 2 l0 7.8 c0 1.1 0.9 2 2 2 l3.5 0 c1.1 0 2 -0.9 2 -2 z M117.99500000000002 18.1 l-1.5 0 l-4.1 -9.8 l-0.1 0 l-1.4 11.7 l-1.5 0 l0 -0.6 l1.8 -13.4 l1.8 0 l4.2 10.1 l0.1 0 l4.2 -10.1 l1.8 0 l1.8 13.4 l0 0.6 l-1.5 0 l-1.4 -11.7 l-0.1 0 z M135.6775 20 l-1.5 0 l0 -14 l6.2 0 c2.1 0 3.5 1.4 3.5 3.3 l0 2.7 c0 1.9 -1.4 3.3 -3.5 3.3 l-4.7 0 l0 4.7 z M140.3775 7.300000000000001 l-4.7 0 l0 6.7 l4.7 0 c1.1 0 2 -0.9 2 -2 l0 -2.7 c0 -1.1 -0.9 -2 -2 -2 z M152.36 16.9 l0 -7.8 c0 -1.9 1.4 -3.3 3.5 -3.3 l3.5 0 c2.1 0 3.5 1.4 3.5 3.3 l0 7.8 c0 1.9 -1.4 3.3 -3.5 3.3 l-3.5 0 c-2.1 0 -3.5 -1.4 -3.5 -3.3 z M161.36 16.9 l0 -7.8 c0 -1.1 -0.9 -2 -2 -2 l-3.5 0 c-1.1 0 -2 0.9 -2 2 l0 7.8 c0 1.1 0.9 2 2 2 l3.5 0 c1.1 0 2 -0.9 2 -2 z M180.54250000000002 20 l-6.8 -11.5 l-0.1 0 l0.2 2.6 l0 8.9 l-1.5 0 l0 -14 l1.6 0 l6.8 11.5 l0.1 0 l-0.2 -2.6 l0 -8.9 l1.5 0 l0 14 l-1.6 0 z M192.02500000000003 20 l0 -14 l9.1 0 l0 0.9 l-0.4 0.4 l-7.2 0 l0 4.9 l5.7 0 l0 1.3 l-5.7 0 l0 5.2 l7.6 0 l0 1.3 l-9.1 0 z M217.80750000000003 20 l-6.8 -11.5 l-0.1 0 l0.2 2.6 l0 8.9 l-1.5 0 l0 -14 l1.6 0 l6.8 11.5 l0.1 0 l-0.2 -2.6 l0 -8.9 l1.5 0 l0 14 l-1.6 0 z M233.39000000000004 7.300000000000001 l0 12.7 l-1.5 0 l0 -12.7 l-4.4 0 l0 -1.3 l10.3 0 l0 0.9 l-0.4 0.4 l-4 0 z M244.97250000000005 9.9 l0 -0.6 c0 -1.9 1.4 -3.3 3.5 -3.3 l5.5 0 l0 0.9 l-0.4 0.4 l-5.1 0 c-1.1 0 -2 0.9 -2 2 l0 0.6 c0 1.1 0.6 1.68 1.6 1.9 l3.7 0.8 c1.4 0.3 2.5 1.4 2.5 3.2 l0 0.9 c0 1.9 -1.4 3.3 -3.5 3.3 l-6 0 l0 -1.3 l6 0 c1.1 0 2 -0.9 2 -2 l0 -0.9 c0 -1.1 -0.6 -1.68 -1.6 -1.9 l-3.7 -0.8 c-1.4 -0.3 -2.5 -1.4 -2.5 -3.2 z "></path></g></svg>
